<?xml version="1.0" encoding="UTF-8" standalone="no"?>
<svg
   xmlns:dc="http://purl.org/dc/elements/1.1/"
   xmlns:cc="http://creativecommons.org/ns#"
   xmlns:rdf="http://www.w3.org/1999/02/22-rdf-syntax-ns#"
   xmlns:svg="http://www.w3.org/2000/svg"
   xmlns="http://www.w3.org/2000/svg"
   xmlns:sodipodi="http://sodipodi.sourceforge.net/DTD/sodipodi-0.dtd"
   xmlns:inkscape="http://www.inkscape.org/namespaces/inkscape"
   viewBox="0 0 135.6459 26.666142"
   version="1.1"
   id="svg859"
   sodipodi:docname="logo-8.svg"
   width="135.6459"
   height="26.666142"
   inkscape:version="1.0.1 (c497b03c, 2020-09-10)">
  <metadata
     id="metadata865">
    <rdf:RDF>
      <cc:Work
         rdf:about="">
        <dc:format>image/svg+xml</dc:format>
        <dc:type
           rdf:resource="http://purl.org/dc/dcmitype/StillImage" />
        <dc:title></dc:title>
      </cc:Work>
    </rdf:RDF>
  </metadata>
  <defs
     id="defs863" />
  <sodipodi:namedview
     pagecolor="#ffffff"
     bordercolor="#666666"
     borderopacity="1"
     objecttolerance="10"
     gridtolerance="10"
     guidetolerance="10"
     inkscape:pageopacity="0"
     inkscape:pageshadow="2"
     inkscape:window-width="1920"
     inkscape:window-height="1035"
     id="namedview861"
     showgrid="false"
     fit-margin-top="0"
     fit-margin-left="0"
     fit-margin-right="0"
     fit-margin-bottom="0"
     inkscape:zoom="3.7574953"
     inkscape:cx="68.085032"
     inkscape:cy="14.396509"
     inkscape:window-x="1440"
     inkscape:window-y="23"
     inkscape:window-maximized="1"
     inkscape:current-layer="svg859" />
  <g
     id="g886"
     transform="translate(-102.77347,41.841716)"
     style="fill:#f2f2f2">
    <path
       d="m 123.12236,-30.138746 a 3.656,3.656 0 0 0 -1.046,2.929 l -0.018,-0.018 a 4.344,4.344 0 0 1 -4.694,4.694 l 0.018,0.018 a 3.678,3.678 0 1 0 3.321,3.318 l 0.019,0.018 a 4.344,4.344 0 0 1 4.694,-4.694 l -0.019,-0.018 a 3.671,3.671 0 1 0 -2.272,-6.247 z"
       fill="#394149"
       id="path833"
       style="fill:#f2f2f2" />
    <path
       d="m 115.74536,-24.873746 -0.019,-0.018 a 3.631,3.631 0 0 0 3.977,-3.974 l 0.019,0.018 a 4.344,4.344 0 0 1 4.694,-4.694 l -0.019,-0.018 a 3.678,3.678 0 1 0 -3.318,-3.318 l -0.018,-0.019 a 4.343,4.343 0 0 1 -4.694,4.694 l 0.018,0.019 a 3.631,3.631 0 0 0 -3.977,3.974 l -0.018,-0.018 a 4.345,4.345 0 0 1 -4.694,4.694 l 0.018,0.018 a 3.678,3.678 0 1 0 3.318,3.318 l 0.019,0.018 a 4.344,4.344 0 0 1 4.694,-4.694 z"
       fill="#394149"
       id="path835"
       style="fill:#f2f2f2" />
    <path
       d="m 109.04336,-26.880746 a 3.652,3.652 0 0 0 1.045,-2.929 l 0.019,0.018 a 4.344,4.344 0 0 1 4.696,-4.694 l -0.019,-0.018 a 3.677,3.677 0 1 0 -3.318,-3.318 l -0.018,-0.018 a 4.344,4.344 0 0 1 -4.694,4.694 l 0.018,0.018 a 3.671,3.671 0 1 0 2.273,6.247 z"
       fill="#394149"
       id="path837"
       style="fill:#f2f2f2" />
    <path
       d="m 140.02036,-36.854746 h 2.97 v 14.453 h -2.97 z"
       fill="#394149"
       id="path839"
       style="fill:#f2f2f2" />
    <path
       d="m 144.67236,-27.350746 a 5.247,5.247 0 1 1 5.247,5.226 5.188,5.188 0 0 1 -5.247,-5.226 z m 7.524,0 a 2.278,2.278 0 1 0 -2.277,2.341 2.221,2.221 0 0 0 2.277,-2.341 z"
       fill="#394149"
       id="path841"
       style="fill:#f2f2f2" />
    <path
       d="m 167.00336,-32.300746 v 9.4 c 0,3.326 -2.594,4.732 -5.227,4.732 a 5.062,5.062 0 0 1 -4.692,-2.4 l 2.534,-1.465 a 2.262,2.262 0 0 0 2.257,1.247 1.973,1.973 0 0 0 2.237,-2.118 v -0.905 a 3.516,3.516 0 0 1 -2.891,1.287 5.031,5.031 0 0 1 0,-10.057 3.516,3.516 0 0 1 2.891,1.287 v -1.01 z m -2.89,4.751 a 2.4,2.4 0 1 0 -2.395,2.3 2.24,2.24 0 0 0 2.395,-2.3 z"
       fill="#394149"
       id="path843"
       style="fill:#f2f2f2" />
    <path
       d="m 168.68536,-27.350746 a 5.247,5.247 0 1 1 5.247,5.226 5.188,5.188 0 0 1 -5.247,-5.226 z m 7.524,0 a 2.278,2.278 0 1 0 -2.277,2.341 2.221,2.221 0 0 0 2.277,-2.341 z"
       fill="#394149"
       id="path845"
       style="fill:#f2f2f2" />
    <path
       d="m 180.56436,-34.953746 a 1.782,1.782 0 1 1 1.782,1.782 1.8,1.8 0 0 1 -1.782,-1.782 z m 0.3,2.653 h 2.971 v 9.9 h -2.975 z"
       fill="#394149"
       id="path847"
       style="fill:#f2f2f2" />
    <path
       d="m 196.65936,-27.350746 a 4.971,4.971 0 0 1 -4.732,5.226 3.715,3.715 0 0 1 -2.949,-1.208 v 4.891 h -2.97 v -13.859 h 2.97 v 0.93 a 3.717,3.717 0 0 1 2.949,-1.207 4.97,4.97 0 0 1 4.732,5.227 z m -2.97,0 a 2.356,2.356 0 1 0 -2.355,2.415 2.26,2.26 0 0 0 2.355,-2.415 z"
       fill="#394149"
       id="path849"
       style="fill:#f2f2f2" />
    <path
       d="m 205.82436,-25.371746 c 0,2.277 -1.979,3.247 -4.117,3.247 a 4.335,4.335 0 0 1 -4.257,-2.356 l 2.573,-1.465 a 1.627,1.627 0 0 0 1.68,1.168 c 0.712,0 1.069,-0.218 1.069,-0.613 0,-1.09 -4.871,-0.515 -4.871,-3.94 0,-2.159 1.822,-3.247 3.881,-3.247 a 4.329,4.329 0 0 1 3.86,2.118 l -2.534,1.366 a 1.437,1.437 0 0 0 -1.326,-0.871 c -0.515,0 -0.832,0.2 -0.832,0.554 0.004,1.129 4.874,0.376 4.874,4.039 z"
       fill="#394149"
       id="path851"
       style="fill:#f2f2f2" />
    <path
       d="m 216.67336,-32.300746 v 9.9 h -2.97 v -0.931 a 3.382,3.382 0 0 1 -2.83,1.208 c -2,0 -3.7,-1.425 -3.7,-4.1 v -6.077 h 2.97 v 5.642 a 1.632,1.632 0 0 0 1.722,1.8 c 1.089,0 1.841,-0.633 1.841,-2.039 v -5.4 z"
       fill="#394149"
       id="path853"
       style="fill:#f2f2f2" />
    <path
       d="m 233.70336,-28.479746 v 6.078 h -2.97 v -5.821 c 0,-0.99 -0.475,-1.623 -1.425,-1.623 -0.99,0 -1.545,0.693 -1.545,1.861 v 5.583 h -2.969 v -5.821 c 0,-0.99 -0.475,-1.623 -1.426,-1.623 -0.99,0 -1.544,0.693 -1.544,1.861 v 5.583 h -2.97 v -9.9 h 2.97 v 0.91 a 3.039,3.039 0 0 1 2.653,-1.187 2.945,2.945 0 0 1 2.593,1.306 3.262,3.262 0 0 1 2.871,-1.306 c 2.273,0.001 3.762,1.624 3.762,4.099 z"
       fill="#394149"
       id="path855"
       style="fill:#f2f2f2" />
    <circle
       cx="236.21536"
       cy="-34.565746"
       r="2.204"
       fill="#394149"
       id="circle857"
       style="fill:#f2f2f2" />
  </g>
</svg>
